<mxfile host="app.diagrams.net" modified="2024-07-25T02:47:27.899Z" agent="Mozilla/5.0 (Macintosh; Intel Mac OS X 10_15_7) AppleWebKit/537.36 (KHTML, like Gecko) Chrome/126.0.0.0 Safari/537.36" version="24.6.4" etag="RTUQWPK8u28vsR-d0CGb" type="github">
  <diagram name="Page-1" id="feObIiHuZG-z9UPHWwq9">
    <mxGraphModel>
      <root>
        <mxCell id="0" />
        <mxCell id="1" parent="0" />
      </root>
    </mxGraphModel>
  </diagram>
</mxfile>
